<svg width="328" height="328" viewBox="0 0 328 328" fill="none" xmlns="http://www.w3.org/2000/svg">
<path d="M145.113 184.971C142.399 190.528 127.557 202.358 124.756 194.569C124.725 194.877 124.709 195.039 124.692 195.201C111.238 177.474 126.44 173.506 136.868 168.617C161.66 157.697 152.811 162.281 159.499 167.673C154.834 173.577 150.059 180.598 144.51 185.543C144.76 185.306 144.936 185.139 145.113 184.971ZM130.622 190.678C129.691 190.778 129.646 190.862 130.084 191.574C130.264 191.275 130.417 191.019 130.622 190.678ZM135.012 184.582C135.196 185.03 136.085 184.106 135.786 183.63C135.644 183.802 135.563 183.902 135.012 184.582ZM136.998 182.311C137.576 182.089 137.576 182.089 137.905 181.322C137.602 181.653 137.297 181.984 136.998 182.311ZM128.535 194.049C128.385 193.949 127.479 193.534 127.854 194.418C127.968 194.357 128.059 194.307 128.535 194.049ZM141.408 187.952C141.087 188.195 140.957 188.217 141.408 187.952C141.395 187.783 140.435 187.574 141.408 187.952ZM146.118 182.958C145.929 183.282 145.842 183.302 146.118 182.958C146.075 182.842 145.152 182.783 146.118 182.958ZM129.944 192.171C129.757 192.104 129.711 191.79 129.418 192.227C129.533 192.36 129.493 192.556 129.944 192.171Z" fill="#E62F20"/>
<path d="M110.5 161.974C106.665 159.137 105.98 153.376 109.031 149.252C113.689 140.502 131.916 147.07 137.103 148.101C146.729 151.17 153.527 151.669 154.054 154.011C156.335 163.142 150.942 159.983 144.96 162.344C128.765 165.925 120.16 166.574 110.5 161.974ZM112.265 160.906C111.51 160.823 112.177 163.147 112.68 161.857C112.543 161.653 112.886 161.751 112.265 160.906ZM111.353 155.011C110.825 155.249 111.074 156.588 111.708 155.44C111.689 155.372 111.663 155.312 111.353 155.011ZM112.075 159.473C112.42 158.907 112.088 158.069 111.661 158.956C111.681 159.085 111.742 159.212 112.075 159.473Z" fill="#E62F20"/>
<path d="M120.446 129.368C113.302 133.704 117.444 107.72 129.553 113.767C141.019 122.941 149.582 135.438 159.499 146.238C156.509 155.744 147.425 146.698 142.026 144.378C111.804 128.956 121.03 131.257 121.727 127.3C120.82 127.79 120.404 128.437 120.446 129.368ZM122.272 126.985C123.045 126.738 123.697 125.871 123.773 125.131C123.205 125.832 122.738 126.408 122.272 126.985ZM124.804 124.665C124.672 124.995 124.593 125.19 124.472 125.49C124.945 125.234 124.945 125.234 124.804 124.665ZM128.18 133.553C128.336 133.869 128.37 134.015 128.18 133.553C128.01 133.533 127.723 134.269 128.18 133.553ZM122.897 127.523C123.128 127.59 123.028 127.685 123.339 127.21C123.117 127.157 123.111 126.961 122.897 127.523Z" fill="#E62F20"/>
<path d="M177.225 92.8587C183.967 91.1672 183.563 105.122 182.868 108.593C179.135 123.093 174.164 144.306 172.592 143.08C171.198 142.43 168.754 143.361 168.066 141.795C166.942 133.807 165.423 125.717 164.926 117.246C163.798 99.4446 163.468 89.3814 175.442 90.9029C176.525 91.4336 178.671 91.3117 177.243 92.8721C176.7 92.7604 176.159 92.6313 175.506 92.9602C176.224 93.4018 176.72 93.0811 177.225 92.8587Z" fill="#E62F20"/>
<path d="M181.596 165.728C182.719 164.419 182.927 160.007 184.979 161.407C189.577 163.162 193.617 164.034 198.489 165.665C242.79 176.057 216.699 191.595 214.82 190.548C205.196 190.407 185.217 168.84 181.596 165.728Z" fill="#E62F20"/>
<path d="M163.595 210.385C163.737 210.625 163.88 210.866 164.089 211.217C162.659 201.492 165.453 190.847 166.914 180.537C169.232 171.619 165.791 171.928 174.406 171.775C178.573 188.007 184.685 205.108 181.554 211.343C177.206 219.451 163.328 217.98 163.595 210.385Z" fill="#E62F20"/>
<path d="M178.767 146.404C170.072 144.096 183.619 124 184.473 119.252C187.825 113.118 189.079 106.938 194.233 102.456C200.079 100.711 207.58 108.63 205.912 113.816C200.22 126.007 183.363 142.199 178.767 146.404Z" fill="#E62F20"/>
<path d="M151.955 101.131C161.22 107.711 165.139 138.424 166.046 142.105C166.031 143.366 162.933 143.393 161.975 144.767C153.306 134.412 144.57 118.583 138.422 105.128C136.523 97.7905 148.564 95.8024 151.955 101.131Z" fill="#E62F20"/>
<path d="M222.745 148.406C221.733 149.794 232.169 147.898 228.13 159.685C225.851 171.569 186.94 160.921 187.315 159.1C168.993 152.128 218.009 146.534 222.745 148.406ZM220.921 148.78C221.547 149.268 221.558 149.268 221.796 148.78C221.497 148.78 221.194 148.78 220.921 148.78Z" fill="#E62F20"/>
<path d="M175.867 170.04C182.156 165.264 178.268 166.519 182.782 169.587C196.975 184.643 215.092 195.639 203.005 205.339C189.305 218.032 178.399 177.568 175.867 170.04ZM199.188 196.256C198.759 196.442 198.49 196.559 198.108 196.723C198.986 197.099 198.986 197.099 199.188 196.256ZM199.943 200.714C200.013 200.865 200.058 201.025 200.376 201.087C200.75 200.934 200.849 200.685 199.943 200.714Z" fill="#E62F20"/>
<path d="M211.702 139.807C176.63 154.686 182.689 151.476 180.783 149.867C178.026 147.241 182.942 145.995 184.53 143.623C196.588 130.761 209.637 118.7 213.462 119.428C226.859 123.679 222.199 136.97 211.673 139.829C211.727 139.689 211.778 139.55 211.873 139.3C211.45 139.594 211.45 139.594 211.702 139.807ZM208.853 140.111C209.277 139.823 210.455 139.722 210.733 139.228C210.306 139.502 208.82 138.713 208.853 140.111Z" fill="#E62F20"/>
<path d="M161.27 169.32C162.551 170.408 166.593 170.657 165.984 172.641C164.845 178.9 164.319 185.416 163.242 191.926C159.932 223.711 141.648 204.872 142.331 202.991C143.688 191.7 158.588 174.001 161.27 169.32Z" fill="#E62F20"/>
<path d="M168.135 168.412C166.631 170.967 159.339 164.285 159.1 162.594C151.82 149.608 165.597 142.041 173.551 145.68C194.176 163.196 168.699 172.358 168.135 168.412ZM166.752 148.872C166.836 147.284 166.836 147.284 166.368 146.938C166.514 147.672 166.633 148.272 166.752 148.872ZM167.834 163.914C167.91 163.414 167.936 163.095 167.471 162.928C167.277 163.349 167.347 163.618 167.834 163.914ZM166.013 154.664C166.448 154.821 166.376 153.528 165.769 153.644C165.813 153.831 165.843 153.957 166.013 154.664Z" fill="#E71D73"/>
<path d="M95.6063 269.071C153.396 245.853 115.215 271.746 129.253 274.687C148.632 277.24 167.843 246.41 173.568 234.124C175.512 213.464 159.225 226.042 151.758 233.528C148.207 236.492 144.391 238.173 139.822 239.695C136.404 241.036 129.44 241.483 133.938 236.459C138.66 232.49 144.545 228.785 148.023 223.172C148.878 215.594 139.222 211.431 134.107 216.704C125.579 224.19 117.649 233.855 107.758 237.917C74.1323 260.456 67.3452 249.314 62.7264 254.448C53.2242 273.196 84.2735 275.398 95.6063 269.071Z" fill="#E62F20" stroke="#F6F2F1" stroke-width="4" stroke-miterlimit="10"/>
<path d="M159.277 283.416C183.695 266.448 216.758 215.87 185.484 223.102C179.799 229.01 186.167 224.406 174.127 248.056C137.727 309.927 101.871 266.256 90.0717 278.55C74.0552 297.436 173.658 319.384 166.799 287.491C164.445 283.66 154.906 288.446 159.277 283.416Z" fill="#E62F20" stroke="#F6F2F1" stroke-width="4" stroke-miterlimit="10"/>
<path d="M224.405 212.742C224.094 194.577 207.5 213.166 203.481 219.224C200.782 225.657 198.989 235.196 209.03 229.334C210.239 228.84 211.569 228.548 211.707 229.792C211.863 232.33 211.11 238.003 209.029 237.598C203.144 238.345 198.893 250.69 208.091 249.697C209.146 249.868 208.631 250.99 208.218 252.327C198.158 283.342 178.636 265.81 169.159 296.066C163.997 307.466 174.394 305.468 181.275 302.693C192.829 298.506 204.436 293.55 210.668 282.082C220.633 260.169 226.307 236.775 224.405 212.742Z" fill="#E62F20" stroke="#F6F2F1" stroke-width="4" stroke-miterlimit="10"/>
<path d="M66.0865 243.184C83.5047 248.083 94.6144 236.018 107.03 228.783C113.949 224.66 122.363 220.453 128.498 216.905C129.294 209.896 123.566 208.077 119.293 204.05C109.732 193.02 102.024 196.998 102.25 202.299C109.413 215.622 102.725 210.953 92.5809 212.32C89.0859 211.743 87.2492 207.692 84.5017 205.097C74.1282 188.464 56.2598 187.79 70.9913 206.105C72.7043 208.855 72.8442 210.555 69.0135 210.547C59.9221 206.05 52.1035 194.585 48.214 188.983C28.1051 154.728 16.0399 176.22 17.8199 183.211C24.4924 208.995 46.5841 235.293 66.0865 243.184Z" fill="#E62F20" stroke="#F6F2F1" stroke-width="4" stroke-miterlimit="10"/>
<path d="M261.245 242.36C262.694 219.924 244.349 191.658 237.22 187.697C227.153 183.718 222.338 197.862 225.823 205.614C230.537 219.779 246.419 211.39 236.805 205.252C236.299 204.73 236.02 204.193 236.141 203.124C239.405 196.287 247.631 228.515 246.935 230.123C246.857 236.545 248.359 242.086 244.493 244.005C240.357 244.704 239.635 242.445 237.102 240.104C224.746 239.539 224.776 262.329 228.938 269.32C246.079 286.984 264.227 259.77 261.245 242.36Z" fill="#E62F20" stroke="#F6F2F1" stroke-width="4" stroke-miterlimit="10"/>
<path d="M160.109 54.2205C153.822 63.1527 141.589 88.0517 142.902 88.6855C146.011 96.7212 154.274 95.4424 158.302 88.8498C166.773 79.2027 175.535 47.2638 179.208 62.9782C184.116 64.6566 193.587 58.3195 198.125 58.5801C222.101 57.708 186.28 78.0294 186.247 84.8634C184.777 94.4567 199.544 95.9809 204.511 89.5729C222.515 73.3017 237.301 69.0354 243.282 63.7378C249.28 58.1116 245.926 48.3368 240.266 43.4306C225.412 31.7076 202.51 39.4188 188.369 46.0591C197.444 26.3847 187.554 28.4311 179.209 33.5401C171.251 39.1095 165.88 46.5296 160.109 54.2205Z" fill="#E62F20" stroke="#F6F2F1" stroke-width="4" stroke-miterlimit="10"/>
<path d="M108.184 80.4785C104.649 109.448 124.079 106.168 129.186 99.6246C138.053 89.869 139.872 76.0763 145.762 66.4059C161.557 38.9311 171.736 38.1168 164.135 24.1283C159.658 18.995 153.147 23.2775 147.709 24.9802C125.03 34.9548 109.791 61.0373 108.184 80.4785ZM122.043 76.0003C127.142 50.8264 151.399 35.3574 133.472 58.9594C126.228 70.0151 124.228 80.7919 122.043 76.0003Z" fill="#E62F20" stroke="#F6F2F1" stroke-width="4" stroke-miterlimit="10"/>
<path d="M225.504 83.7936C190.716 100.92 220.401 107.234 223.899 110.856C228.294 113.615 230.161 117.713 234.111 121.093C239.103 125.171 246.976 120.228 243.951 113.886C240.643 106.409 233.861 105.585 236.471 102.956C241.792 101.672 245.23 115.301 253.535 111.018C255.997 109.085 255.244 106.525 253.524 104.054C248.932 93.9416 261.264 100.318 265.157 103.344C289.666 124.732 279.041 118.916 287.484 123.213C313.752 125.841 286.31 87.3906 275.952 83.323C255.81 73.7774 242.157 79.7047 225.504 83.7936Z" fill="#E62F20" stroke="#F6F2F1" stroke-width="4" stroke-miterlimit="10"/>
<path d="M62.84 94.6646C67.0226 129.3 95.8031 142.336 105.023 131.326C115.659 115.548 98.0709 100.704 95.7301 114.261C95.1053 116.825 92.1793 117.937 89.6042 116.911C80.028 108.335 76.3413 88.9765 78.9529 78.5263C79.2592 73.974 84.8374 62.1527 89.7959 62.531C91.8335 62.9224 92.5566 63.7367 93.8183 65.7122C103.135 77.497 119.437 53.3078 106.823 41.4338C78.3149 24.395 57.6442 72.7733 62.84 94.6646Z" fill="#E62F20" stroke="#F6F2F1" stroke-width="4" stroke-miterlimit="10"/>
<path d="M33.9418 142.889C44.1398 170.909 72.4821 193.141 103.111 194.445C112.833 193.957 113.142 179.166 105.658 175.09C100.501 172.557 94.4074 173.265 88.5625 171.979C83.0096 171.006 72.119 168.6 71.2894 163.28C74.6464 154.904 101.811 169.175 102.964 151.761C103.078 148.359 102.999 143.659 100.727 142.866C86.2156 140.964 81.9052 147.379 71.838 138.812C67.4495 133.79 65.8836 128.056 63.847 121.713C50.0669 74.4355 22.3017 113.636 33.9418 142.889ZM45.228 123.64C47.0729 119.141 53.6065 133.231 54.1258 134.87C64.0042 165.04 42.8862 135.753 45.228 123.64Z" fill="#E62F20" stroke="#F6F2F1" stroke-width="4" stroke-miterlimit="10"/>
<path d="M285.488 204.122C284.379 187.586 255.358 146.509 238.688 165.865C233.894 173.428 241.996 177.378 245.174 183.355C250.498 191.977 254.797 200.419 258.98 209.836C262.926 217.818 262.646 226.193 266.193 234.541C268.253 240.317 272.803 239.763 276.852 236.857C287.088 229.672 286.975 211.34 285.488 204.122ZM273.852 209.926C270.31 214.497 266.425 198.582 264.409 196.747C258.16 185.261 251.471 183.209 257.591 181.298C266.343 180.897 276.119 205.143 273.852 209.926ZM273.674 208.561C273.654 208.604 273.634 208.647 273.614 208.69L273.674 208.561Z" fill="#E62F20"/>
<path d="M273.674 208.561C273.654 208.604 273.634 208.647 273.614 208.69M285.488 204.122C284.379 187.586 255.358 146.509 238.688 165.865C233.894 173.428 241.996 177.378 245.174 183.355C250.498 191.977 254.797 200.419 258.98 209.836C262.926 217.818 262.646 226.193 266.193 234.541C268.253 240.317 272.803 239.763 276.852 236.857C287.088 229.672 286.975 211.34 285.488 204.122ZM273.852 209.926C270.31 214.497 266.425 198.582 264.409 196.747C258.16 185.261 251.471 183.209 257.591 181.298C266.343 180.897 276.119 205.143 273.852 209.926Z" stroke="#F6F2F1" stroke-width="4" stroke-miterlimit="10"/>
<path d="M304.149 139.993C301.685 122.742 283.637 126.022 281.474 130.385C276.404 135.638 291.466 154.314 278.841 151.278C239.768 126.591 238.438 126.653 234.304 131.688C226.245 155.758 267.583 154.706 278.335 167.803C284.364 174.407 287.593 182.146 288.975 191.012C290.791 198.038 286.113 224.414 298.779 209.993C307.89 188.164 306.932 149.608 304.149 139.993Z" fill="#E62F20" stroke="#F6F2F1" stroke-width="4" stroke-miterlimit="10"/>
<path d="M164 324C252.366 324 324 252.366 324 164C324 75.6344 252.366 4 164 4C75.6345 4 4 75.6344 4 164C4 252.366 75.6345 324 164 324Z" stroke="#E62F20" stroke-width="8" stroke-miterlimit="10"/>
</svg>
