<?xml version="1.0" encoding="utf-8"?>
<!-- Generator: Adobe Illustrator 23.1.0, SVG Export Plug-In . SVG Version: 6.00 Build 0)  -->
<svg version="1.1" xmlns="http://www.w3.org/2000/svg" xmlns:xlink="http://www.w3.org/1999/xlink" x="0px" y="0px"
	 viewBox="0 0 1280.2 1066.9" style="enable-background:new 0 0 1280.2 1066.9;" xml:space="preserve">
<style type="text/css">
	.st0{fill:#FAFAFA;}
	.st1{fill:#FFFFFF;}
	.st2{fill:url(#shape_3_1_);}
	.st3{fill:url(#SVGID_1_);}
	.st4{fill-rule:evenodd;clip-rule:evenodd;fill:#FFFFFF;}
</style>
<g id="background_1_">
	<path id="background" class="st0" d="M1260.4,1066.9H19.9c-11,0-19.9-8.9-19.9-19.9V19.9C0,8.9,8.9,0,19.9,0h1240.5
		c11,0,19.9,8.9,19.9,19.9V1047C1280.2,1058,1271.4,1066.9,1260.4,1066.9z"/>
</g>
<g id="WhatsApp_Logo">
	<g id="shape_4">
		
			<image style="overflow:visible;opacity:6.000000e-02;" width="1075" height="1079" xlink:href="FD7FFC3F.png"  transform="matrix(1 0 0 1 -22.4886 1.8383)">
		</image>
		<g>
			
				<image style="overflow:visible;opacity:0.15;" width="1018" height="1022" xlink:href="FD7FFC3D.png"  transform="matrix(1 0 0 1 5.5114 28.8383)">
			</image>
			<g>
				<path class="st1" d="M15,1037.5l70.6-257.7C42,704.5,19.1,618.9,19.1,531.3C19.2,257.2,242.4,34.1,516.5,34.1
					c133,0.1,257.9,51.8,351.8,145.8c93.9,94,145.6,218.9,145.5,351.8c-0.1,274.1-223.3,497.2-497.4,497.2c0,0,0,0,0,0h-0.2
					c-83.2,0-165-20.9-237.7-60.5L15,1037.5z M290.8,878.4l15.1,9c63.5,37.7,136.2,57.6,210.4,57.6h0.2
					c227.9,0,413.3-185.4,413.4-413.3c0-110.4-42.9-214.3-121-292.4c-78.1-78.1-181.8-121.2-292.3-121.2
					c-228,0-413.5,185.4-413.6,413.2c0,78.1,21.8,154.1,63.2,219.9l9.8,15.6l-41.8,152.5L290.8,878.4z"/>
			</g>
		</g>
	</g>
	<linearGradient id="shape_3_1_" gradientUnits="userSpaceOnUse" x1="514.4294" y1="1020.1835" x2="514.4294" y2="51.4914">
		<stop  offset="0" style="stop-color:#20B038"/>
		<stop  offset="1" style="stop-color:#60D66A"/>
	</linearGradient>
	<path id="shape_3" class="st2" d="M32.3,1020.2l68.1-248.7c-42-72.8-64.1-155.4-64.1-240c0.1-264.7,215.5-480,480.2-480
		c128.5,0.1,249,50,339.7,140.8c90.7,90.7,140.6,211.3,140.5,339.6c-0.1,264.7-215.5,480-480.1,480c0,0,0,0,0,0h-0.2
		c-80.4,0-159.3-20.2-229.4-58.4L32.3,1020.2z"/>
	<g id="shape_2">
		
			<image style="overflow:visible;opacity:4.000000e-02;" width="1024" height="1028" xlink:href="FD7FFC43.png"  transform="matrix(1 0 0 1 11.5114 22.8383)">
		</image>
		<g>
			<g>
				<linearGradient id="SVGID_1_" gradientUnits="userSpaceOnUse" x1="523.4322" y1="1037.6399" x2="523.4322" y2="34.2102">
					<stop  offset="0" style="stop-color:#F9F9F9"/>
					<stop  offset="1" style="stop-color:#FFFFFF"/>
				</linearGradient>
				<path class="st3" d="M24,1037.6L94.5,780C51,704.6,28.1,619,28.1,531.4C28.2,257.3,251.4,34.2,525.5,34.2
					c133,0.1,257.9,51.8,351.8,145.8c93.9,94,145.6,218.9,145.5,351.8c-0.1,274.1-223.3,497.2-497.4,497.2c0,0,0,0,0,0h-0.2
					c-83.2,0-165-20.9-237.7-60.5L24,1037.6z M299.8,878.5l15.1,9c63.5,37.7,136.2,57.6,210.4,57.6h0.2
					c227.9,0,413.3-185.4,413.4-413.3c0-110.4-42.9-214.3-121-292.4c-78.1-78.1-181.8-121.2-292.3-121.2
					c-228,0-413.5,185.4-413.6,413.2c0,78.1,21.8,154.1,63.2,219.9l9.8,15.6l-41.8,152.5L299.8,878.5z"/>
			</g>
		</g>
	</g>
	<g id="shape_1">
		
			<image style="overflow:visible;opacity:6.000000e-02;" width="530" height="494" xlink:href="FD7FFC45.png"  transform="matrix(1 0 0 1 251.5114 290.8383)">
		</image>
		<g>
			<path class="st4" d="M392.2,323.5c-9.3-20.7-19.1-21.1-28-21.5c-7.2-0.3-15.5-0.3-23.8-0.3c-8.3,0-21.8,3.1-33.1,15.5
				c-11.4,12.4-43.5,42.5-43.5,103.6c0,61.2,44.5,120.2,50.7,128.5c6.2,8.3,86,137.8,212.3,187.6c105,41.4,126.3,33.2,149.1,31.1
				c22.8-2.1,73.5-30.1,83.9-59.1c10.4-29,10.4-53.9,7.3-59.1c-3.1-5.2-11.4-8.3-23.8-14.5s-73.5-36.3-84.9-40.4
				c-11.4-4.1-19.7-6.2-28,6.2c-8.3,12.4-32.1,40.4-39.3,48.7c-7.3,8.3-14.5,9.3-26.9,3.1c-12.4-6.2-52.5-19.3-99.9-61.7
				c-36.9-32.9-61.9-73.6-69.1-86.1c-7.3-12.4-0.8-19.2,5.5-25.4c5.6-5.6,12.4-14.5,18.6-21.8c6.2-7.3,8.3-12.4,12.4-20.7
				c4.1-8.3,2.1-15.6-1-21.8C427.4,409.5,403.3,348,392.2,323.5z"/>
		</g>
	</g>
</g>
</svg>
